<svg width="4096" height="4096" xmlns="http://www.w3.org/2000/svg"><path fill="#66d7ff" fill-rule="evenodd" d="M0 4100V0h4096v4100Z"/><linearGradient id="a" x1="1783.2" y1="902.1" x2="1783.2" y2="676" gradientUnits="userSpaceOnUse"><stop offset=".6" stop-color="#9b3769"/><stop offset=".8" stop-color="#cd5f95"/></linearGradient><path fill="url(#a)" fill-rule="evenodd" d="M988 900V676h1060v224Z"/><path fill="#cd5f95" fill-rule="evenodd" d="M988 900V676h300v224Z"/><linearGradient id="b" x1="1852.4" y1="679.8" x2="1852.4" y2="893.8" gradientUnits="userSpaceOnUse"><stop offset="0" stop-color="#f676b3"/><stop offset="1" stop-color="#eb68a7"/></linearGradient><path fill="url(#b)" fill-rule="evenodd" d="M1288 900V676h152v224Zm304 0V676h152v224Zm304 0V676h152v224Z"/><linearGradient id="c" x1="2045" y1="3872" x2="2045" y2="4094" gradientUnits="userSpaceOnUse"><stop offset="0" stop-color="#bf5187"/><stop offset="1" stop-color="#cf6096"/></linearGradient><path fill="url(#c)" fill-rule="evenodd" d="M830 4096v-216h158v216Zm462 0v-216h155v216Zm452-4v-220h604v220Z"/><path fill="#f281b6" fill-rule="evenodd" d="M684 3888v208h152v-208h605v208h155V1956H684v1932Z"/><linearGradient id="d" x1="1883" y1="2151.2" x2="2190.4" y2="2842.8" gradientUnits="userSpaceOnUse"><stop offset="0" stop-color="#fea1dd"/><stop offset="1" stop-color="#cf6096"/></linearGradient><path fill="url(#d)" fill-rule="evenodd" d="M1592 1964v2132h760V892h-918v1072h158Z"/><path fill="#ef9bc9" fill-rule="evenodd" d="M836 3888V1964h604v1924Z"/><path fill="#e2e6f4" fill-rule="evenodd" d="M684 2176v-220h152v220Zm452 0v-220h152v220Zm608-432v-640h152v640Z"/><path fill="#fff" fill-rule="evenodd" d="M828 2176v-220h160v220Zm452 0v-220h160v220Zm608-432v-640h464v640Z"/><linearGradient id="e" x1="1206.4" y1="910.1" x2="1206.4" y2="1942.2" gradientUnits="userSpaceOnUse"><stop offset="0" stop-color="#f281b6"/><stop offset="1" stop-color="#e573a8"/></linearGradient><path fill="url(#e)" fill-rule="evenodd" d="M532 1964V892h908v1072Z"/><path fill="#cf5e95" fill-rule="evenodd" d="M1140 1748v-212h152v212Zm-452 0v-212h152v212Z"/><linearGradient id="f" x1="2843.2" y1="2618.1" x2="2843.2" y2="2392" gradientUnits="userSpaceOnUse"><stop offset=".6" stop-color="#aa6401"/><stop offset=".8" stop-color="#f2b501"/></linearGradient><path fill="url(#f)" fill-rule="evenodd" d="M2048 2616v-224h1060v224Z"/><path fill="#f2b501" fill-rule="evenodd" d="M2808 2616v-224h300v224Z"/><path fill="#d28e00" fill-rule="evenodd" d="M2048 2616v-224h152v224Zm304 0v-224h152v224Zm304 0v-224h152v224Z"/><linearGradient id="g" x1="2739.2" y1="3884" x2="2739.2" y2="4098" gradientUnits="userSpaceOnUse"><stop offset="0" stop-color="#bc6d00"/><stop offset="1" stop-color="#cd7f00"/></linearGradient><path fill="url(#g)" fill-rule="evenodd" d="M2499 4096v-220h170v220Zm465 0v-220h164v220Z"/><linearGradient id="h" x1="2384" y1="3884" x2="2384" y2="4094.1" gradientUnits="userSpaceOnUse"><stop offset="0" stop-color="#db8f01"/><stop offset="1" stop-color="#f2b501"/></linearGradient><path fill="url(#h)" fill-rule="evenodd" d="M1888 4096v-221h160v221Zm460 0v-221h160v221Z"/><path fill="#f8b900" fill-rule="evenodd" d="M1744 3884v212h152v-212h308v212h152v-212h353V2608h-965v1276Z"/><linearGradient id="i" x1="2767.3" y1="3247.9" x2="2767.3" y2="3462.1" gradientUnits="userSpaceOnUse"><stop offset="0" stop-color="#9d243b"/><stop offset="1" stop-color="#ca3954"/></linearGradient><path fill="url(#i)" fill-rule="evenodd" d="M2500 3460v-212h808v212Z"/><linearGradient id="j" x1="2874.4" y1="3239.8" x2="2874.4" y2="3470.3" gradientUnits="userSpaceOnUse"><stop offset="0" stop-color="#9d243b"/><stop offset="1" stop-color="#ca3954"/></linearGradient><path fill="url(#j)" fill-rule="evenodd" d="M2660 3468v-228h648v228Z"/><path fill="#fff" fill-rule="evenodd" d="M2192 3460v-640h160v640Zm604 8v-228h160v228Zm456 0v-228h160v228Z"/><path fill="#e2e6f4" fill-rule="evenodd" d="M1744 3460v-640h456v640Zm916 8v-228h148v228Zm456 0v-228h148v228Z"/><path fill="#1f1f29" fill-rule="evenodd" d="M2016 1620v-216h164v216Zm-132 1472v-216h164v216Z"/><linearGradient id="k" x1="3138.4" y1="3884" x2="3138.4" y2="4094.1" gradientUnits="userSpaceOnUse"><stop offset="0" stop-color="#924000"/><stop offset="1" stop-color="#9a5100"/></linearGradient><path fill="url(#k)" fill-rule="evenodd" d="M2660 4096v-212h152v212Zm456 0v-212h152v212Z"/><path fill="#ffe800" fill-rule="evenodd" d="M2660 3248v-640h908v640Zm0 636v-424h908v424Z"/><path fill="#f4b800" fill-rule="evenodd" d="M2804 3032v-212h152v212Zm456 0v-212h152v212Z"/></svg>